<?xml version="1.0" standalone="no"?>
<!DOCTYPE svg PUBLIC "-//W3C//DTD SVG 20010904//EN"
 "http://www.w3.org/TR/2001/REC-SVG-20010904/DTD/svg10.dtd">
<svg version="1.0" xmlns="http://www.w3.org/2000/svg"
 width="512.000000pt" height="512.000000pt" viewBox="0 0 512.000000 512.000000"
 preserveAspectRatio="xMidYMid meet">
<metadata>
Created by potrace 1.14, written by Peter Selinger 2001-2017
</metadata>
<g transform="translate(0.000000,512.000000) scale(0.100000,-0.100000)"
fill="#000000" stroke="none">
<path d="M180 5081 c17 -22 84 -95 149 -163 65 -68 123 -133 130 -146 15 -29
4 -90 -19 -102 -29 -16 -164 14 -349 76 -40 14 -75 23 -77 21 -2 -2 -5 -51 -6
-108 l-3 -105 40 -58 c22 -33 57 -73 78 -90 21 -17 52 -43 70 -58 44 -38 197
-111 283 -137 116 -34 223 -44 404 -38 155 6 313 31 410 66 14 5 34 12 45 17
11 4 27 8 36 10 9 2 39 15 67 29 27 14 53 25 56 25 13 0 5 -48 -24 -141 -31
-97 -64 -152 -110 -184 -14 -10 -36 -34 -49 -54 -112 -171 -356 -466 -495
-596 -61 -58 -130 -150 -165 -225 -36 -75 -36 -75 -36 -210 1 -143 24 -283 67
-400 72 -193 242 -315 439 -314 62 0 87 6 132 27 62 31 150 119 244 244 55 74
61 78 101 81 37 3 47 -1 76 -30 44 -44 56 -90 56 -210 0 -182 -26 -237 -188
-402 -50 -52 -92 -99 -92 -105 0 -24 47 -34 96 -22 146 37 344 194 549 436 96
113 195 215 227 231 51 27 83 18 127 -34 22 -26 57 -79 77 -119 34 -67 36 -76
32 -142 -10 -130 -79 -207 -273 -302 -153 -75 -187 -98 -303 -206 -211 -197
-345 -424 -407 -693 -63 -273 -36 -528 88 -837 l43 -108 126 -3 125 -3 -18
108 c-32 183 -34 302 -10 419 34 163 78 244 191 351 70 66 216 133 293 133 32
0 31 7 11 -123 -12 -70 -17 -170 -17 -317 -1 -226 10 -328 54 -493 l21 -77 83
0 84 0 -24 60 c-46 117 -58 195 -63 397 -3 149 0 214 12 290 34 200 43 223
316 778 129 264 177 386 189 479 6 48 4 52 -26 80 -18 15 -31 32 -28 36 3 4
-5 11 -18 14 -21 7 -21 7 -2 16 11 5 14 9 6 9 -8 1 -11 7 -7 18 4 9 1 20 -5
24 -14 8 2 63 19 65 23 3 24 4 13 17 -8 10 -6 23 9 52 15 30 17 41 7 47 -9 6
-8 8 3 8 8 0 25 15 37 33 12 17 39 51 60 75 108 121 176 215 165 228 -4 4 -1
4 7 -1 17 -10 32 13 25 41 -6 23 17 47 24 26 5 -17 22 -15 22 3 0 8 7 15 15
15 8 0 15 -2 15 -3 0 -10 -33 -67 -41 -72 -5 -4 -7 -11 -4 -16 4 -5 2 -9 -3
-9 -6 0 -13 -11 -16 -24 -3 -13 -18 -37 -34 -54 -40 -43 -106 -132 -128 -172
-15 -29 -38 -190 -26 -190 2 0 14 25 28 55 35 81 135 216 156 211 11 -2 18 5
22 21 4 13 10 21 15 18 5 -2 12 7 15 21 5 20 10 23 21 14 10 -8 15 -8 21 1 4
8 3 9 -4 5 -18 -11 -14 19 9 72 22 49 28 62 61 121 11 20 27 60 35 91 7 30 17
57 21 60 4 3 9 12 11 20 2 8 4 20 5 25 11 44 19 65 27 65 5 0 9 9 9 20 0 11 5
20 11 20 5 0 8 4 5 9 -4 5 -1 22 6 38 6 15 12 33 13 38 0 6 4 16 8 23 5 6 5
17 2 22 -3 6 -2 10 2 10 5 0 9 8 10 18 0 9 4 37 7 62 4 25 9 57 10 73 2 15 6
30 10 34 3 3 6 19 6 34 0 15 6 30 13 32 6 3 2 6 -11 6 -21 1 -22 2 -8 17 17
16 17 17 20 79 0 22 5 46 9 53 5 6 4 12 0 12 -11 0 -10 101 1 118 4 7 3 12 -2
12 -6 0 -12 7 -15 14 -4 10 -1 13 9 9 7 -3 14 0 14 6 0 6 -7 11 -15 11 -23 0
-18 21 8 28 22 6 22 6 -3 13 -24 7 -24 7 5 8 23 1 27 3 15 11 -13 9 -13 11 0
19 8 6 11 14 6 18 -4 4 -16 -3 -27 -16 -10 -13 -19 -19 -19 -14 0 5 3 13 7 17
4 3 7 21 8 39 0 17 6 42 13 53 9 18 9 24 -3 34 -17 14 -3 51 18 49 9 0 9 -2 0
-6 -18 -7 -16 -33 2 -33 12 0 14 -4 5 -19 -6 -11 -6 -22 -1 -25 8 -6 21 -61
22 -98 0 -10 3 -18 7 -18 7 0 8 -48 2 -75 -3 -16 12 -55 21 -55 5 0 4 -11 -1
-25 -11 -28 1 -70 22 -78 7 -3 1 -6 -14 -6 -16 -1 -28 -3 -28 -6 0 -12 42 -45
57 -45 15 0 14 -2 -3 -14 -10 -8 -16 -18 -11 -22 4 -4 7 -2 7 4 0 7 5 12 10
12 6 0 10 -7 10 -15 0 -8 5 -15 10 -15 6 0 10 -4 10 -9 0 -6 -9 -8 -20 -6 -12
2 -20 -2 -20 -10 0 -9 6 -12 17 -8 12 5 14 3 8 -7 -6 -10 -4 -12 8 -7 10 3 17
2 17 -3 0 -6 -6 -10 -14 -10 -8 0 -17 -7 -20 -16 -3 -8 -10 -13 -15 -9 -5 3
-2 -9 7 -27 15 -30 17 -31 20 -10 2 13 10 22 20 21 11 0 12 -3 5 -6 -7 -2 -13
-13 -13 -23 0 -10 -4 -20 -10 -22 -15 -5 22 -126 47 -154 13 -15 17 -25 9 -28
-6 -2 -1 -5 12 -5 19 -1 22 3 17 19 -4 11 -2 20 4 20 6 0 11 -7 11 -16 0 -11
6 -14 20 -9 12 4 20 2 20 -5 0 -6 5 -8 11 -4 7 4 10 1 7 -6 -2 -7 -15 -15 -29
-17 -19 -2 -21 -1 -9 7 13 8 13 10 -2 10 -9 0 -20 -5 -23 -10 -4 -6 -11 -7
-17 -4 -8 5 -9 1 -4 -12 5 -10 11 -27 13 -36 3 -10 9 -18 14 -18 5 0 9 -5 9
-10 0 -23 52 -88 68 -85 9 1 11 0 5 -2 -17 -6 -16 -18 2 -37 8 -8 15 -20 15
-26 0 -6 5 -8 12 -4 7 5 8 3 3 -6 -4 -7 -3 -15 1 -19 5 -3 18 -26 28 -51 10
-25 22 -53 27 -62 5 -10 9 -27 9 -39 0 -28 18 -59 35 -59 19 0 28 -17 14 -26
-8 -4 -9 -3 -5 4 4 7 1 12 -9 12 -14 0 -15 -19 -9 -162 6 -183 -7 -318 -51
-502 -51 -218 -118 -375 -240 -561 -102 -157 -129 -201 -176 -295 -26 -52 -57
-129 -69 -170 -19 -62 -29 -81 -65 -112 -36 -31 -48 -52 -69 -116 -35 -108
-46 -179 -46 -303 0 -197 33 -302 136 -442 l49 -67 82 0 81 0 -20 42 c-68 140
-66 168 2 37 l38 -74 101 -3 101 -3 20 43 c11 24 26 50 33 59 17 22 68 38 93
29 26 -10 74 -66 86 -102 9 -25 15 -28 53 -28 43 0 43 0 73 63 16 34 33 73 37
87 19 62 52 110 125 180 64 61 87 92 123 165 74 149 166 453 203 675 23 138
26 533 4 628 -8 34 -18 62 -22 62 -5 0 -8 5 -8 10 0 6 7 10 15 10 8 0 15 8 15
18 1 34 18 -10 34 -89 9 -42 18 -83 21 -90 4 -12 35 -202 66 -404 16 -105 49
-408 50 -465 2 -51 3 -47 15 40 10 64 17 291 23 705 5 348 14 629 20 655 5 25
10 143 11 263 0 194 -2 222 -19 255 -33 65 -49 125 -81 298 -45 247 -82 361
-182 558 -145 287 -477 682 -696 827 -67 44 -79 55 -60 57 61 8 267 69 388
114 224 83 488 232 604 339 45 40 46 43 46 100 l0 59 -325 0 -325 0 0 -23 c0
-30 -15 -48 -64 -77 -35 -21 -37 -21 -28 -4 6 10 24 37 42 59 l32 40 -413 3
c-403 2 -412 2 -426 -18 -18 -25 -30 -25 -38 0 -8 25 -66 28 -85 5 -22 -27
-133 -72 -195 -80 -131 -18 -171 -6 -198 55 l-17 40 -561 -3 -562 -2 -14 -50
c-27 -93 -45 -94 -179 -5 -79 51 -110 64 -139 58 -12 -2 -6 -16 29 -63 102
-134 109 -147 99 -164 -25 -40 -123 -51 -218 -24 -33 9 -75 17 -94 19 -18 1
-38 8 -45 14 -8 9 -8 11 0 7 7 -4 14 6 18 26 5 24 -1 46 -24 93 -29 59 -65
103 -75 92 -3 -3 1 -25 10 -49 37 -99 39 -109 27 -121 -15 -15 -42 7 -42 33 0
10 -12 26 -27 34 -16 9 -20 14 -10 11 21 -7 22 12 2 38 -8 11 -15 28 -15 38 0
16 -8 18 -64 17 l-64 -2 -11 -56 c-6 -31 -16 -63 -21 -71 -16 -24 -12 45 4 84
l14 34 -36 6 c-21 3 -239 6 -485 6 l-449 0 32 -39z m1022 5 c13 2 17 1 8 -2
-8 -4 -21 -13 -28 -21 -18 -18 -37 -12 -38 13 -1 29 6 36 21 20 8 -8 25 -12
37 -10z m775 -18 c-3 -7 -5 -2 -5 12 0 14 2 19 5 13 2 -7 2 -19 0 -25z m1103
-13 c0 -5 -5 -3 -10 5 -5 8 -10 20 -10 25 0 6 5 3 10 -5 5 -8 10 -19 10 -25z
m-1860 1 c0 -2 -7 -7 -16 -10 -8 -3 -12 -2 -9 4 6 10 25 14 25 6z m-54 -33
c-6 -12 -14 -19 -18 -17 -5 3 -8 -6 -8 -21 0 -14 7 -28 16 -32 12 -4 13 -8 3
-14 -22 -13 -29 0 -29 56 0 49 2 53 23 51 20 -1 21 -4 13 -23z m94 23 c0 -2
-9 -6 -20 -9 -11 -3 -18 -1 -14 4 5 9 34 13 34 5z m805 -14 c-3 -3 -11 0 -18
7 -9 10 -8 11 6 5 10 -3 15 -9 12 -12z m932 -19 c-3 -10 -5 -4 -5 12 0 17 2
24 5 18 2 -7 2 -21 0 -30z m31 12 c-3 -3 -9 2 -12 12 -6 14 -5 15 5 6 7 -7 10
-15 7 -18z m-91 -7 c-3 -8 -6 -5 -6 6 -1 11 2 17 5 13 3 -3 4 -12 1 -19z m36
-28 c-6 -7 -23 23 -23 40 0 8 6 4 13 -10 8 -14 12 -27 10 -30z m300 7 c3 -8
-3 -14 -15 -14 -16 -2 -17 1 -8 13 15 17 17 17 23 1z m-2070 -12 c-3 -9 -8
-14 -10 -11 -3 3 -2 9 2 15 9 16 15 13 8 -4z m77 1 c0 -9 -7 -12 -20 -9 -24 6
-27 -18 -5 -37 9 -7 13 -15 11 -18 -8 -7 -34 23 -38 43 -2 13 5 21 22 26 14 4
26 7 28 8 1 1 2 -5 2 -13z m1912 -8 c-7 -7 -12 -8 -12 -2 0 6 3 14 7 17 3 4 9
5 12 2 2 -3 -1 -11 -7 -17z m-231 -28 c5 0 9 4 9 8 0 5 16 9 35 10 21 1 33 -3
30 -8 -4 -6 -10 -8 -15 -5 -5 3 -23 -1 -39 -9 -26 -14 -30 -14 -35 0 -3 9 -5
23 -5 32 1 10 4 8 6 -5 2 -13 9 -23 14 -23z m24 -41 c11 -17 -1 -21 -15 -4 -8
9 -8 15 -2 15 6 0 14 -5 17 -11z m153 -9 c-7 -10 -14 -18 -15 -16 -6 6 9 36
18 36 5 0 4 -9 -3 -20z m-38 -20 c0 -5 -5 -10 -11 -10 -5 0 -7 5 -4 10 3 6 8
10 11 10 2 0 4 -4 4 -10z m-1635 -20 c3 -5 1 -10 -4 -10 -6 0 -11 5 -11 10 0
6 2 10 4 10 3 0 8 -4 11 -10z m1614 -10 c-6 -4 -8 -13 -5 -19 12 -19 -8 -12
-26 8 -16 19 -15 20 13 19 17 -1 25 -4 18 -8z m-1295 -46 c3 -8 2 -12 -4 -9
-6 3 -10 10 -10 16 0 14 7 11 14 -7z m1960 -660 c3 -8 2 -12 -4 -9 -6 3 -10
10 -10 16 0 14 7 11 14 -7z m-27 -26 c-3 -8 -6 -5 -6 6 -1 11 2 17 5 13 3 -3
4 -12 1 -19z m-47 2 c0 -5 -4 -10 -10 -10 -5 0 -10 5 -10 10 0 6 5 10 10 10 6
0 10 -4 10 -10z m-55 -10 c-3 -5 -11 -10 -16 -10 -6 0 -7 5 -4 10 3 6 11 10
16 10 6 0 7 -4 4 -10z m29 -26 c9 -24 8 -26 -14 -14 -11 6 -18 15 -15 21 9 14
22 11 29 -7z m-14 -56 c0 -5 -4 -8 -10 -8 -5 0 -10 7 -10 16 0 11 -5 14 -16
10 -14 -5 -15 -4 -4 9 11 14 14 13 26 -2 7 -10 14 -21 14 -25z m42 -20 c-9 -9
-15 -9 -24 1 -11 11 -10 13 5 8 10 -4 17 -2 17 5 0 6 3 8 7 5 4 -4 1 -13 -5
-19z m-85 -24 c-3 -3 -12 -4 -19 -1 -8 3 -5 6 6 6 11 1 17 -2 13 -5z m90 -139
c0 -8 -4 -15 -9 -15 -10 0 -11 14 -1 23 9 10 10 9 10 -8z m33 -70 c0 -8 -2
-15 -4 -15 -2 0 -6 7 -10 15 -3 8 -1 15 4 15 6 0 10 -7 10 -15z m-60 -185 c0
-5 -2 -10 -4 -10 -3 0 -8 5 -11 10 -3 6 -1 10 4 10 6 0 11 -4 11 -10z m32 -12
c-7 -7 -12 -8 -12 -2 0 6 3 14 7 17 3 4 9 5 12 2 2 -3 -1 -11 -7 -17z m205
-210 c-3 -8 -6 -5 -6 6 -1 11 2 17 5 13 3 -3 4 -12 1 -19z m41 -73 c-3 -3 -9
2 -12 12 -6 14 -5 15 5 6 7 -7 10 -15 7 -18z m62 -15 c0 -5 -5 -10 -11 -10 -5
0 -7 5 -4 10 3 6 8 10 11 10 2 0 4 -4 4 -10z m50 -110 c0 -5 -2 -10 -4 -10 -3
0 -8 5 -11 10 -3 6 -1 10 4 10 6 0 11 -4 11 -10z m-4 -35 c-11 -8 -25 -15 -30
-15 -6 0 -2 7 8 15 11 8 25 15 30 15 6 0 2 -7 -8 -15z m50 -14 c-3 -5 1 -11 9
-15 22 -8 19 -46 -4 -46 -12 0 -20 9 -24 27 -6 30 -1 43 14 43 6 0 8 -4 5 -9z
m-31 -21 c3 -5 2 -17 -3 -26 -8 -14 -10 -14 -21 0 -13 15 -8 36 9 36 5 0 12
-4 15 -10z m70 -59 c-3 -5 5 -12 17 -14 15 -3 9 -5 -14 -6 -37 -1 -51 12 -25
22 20 9 29 8 22 -2z m-37 -46 c-3 -3 -9 2 -12 12 -6 14 -5 15 5 6 7 -7 10 -15
7 -18z m-638 -39 c0 -3 -4 -8 -10 -11 -5 -3 -10 -1 -10 4 0 6 5 11 10 11 6 0
10 -2 10 -4z m712 -31 c4 -17 1 -25 -8 -25 -8 0 -11 6 -7 17 5 12 2 15 -10 10
-9 -3 -17 -2 -17 2 0 9 15 18 31 20 4 1 9 -10 11 -24z m33 -15 c3 -5 1 -10 -4
-10 -6 0 -11 5 -11 10 0 6 2 10 4 10 3 0 8 -4 11 -10z m-1 -35 c-4 -8 -11 -12
-16 -9 -6 4 -5 10 3 15 19 12 19 11 13 -6z m78 -27 c-7 -7 -12 -8 -12 -2 0 6
3 14 7 17 3 4 9 5 12 2 2 -3 -1 -11 -7 -17z m-872 -12 c0 -3 -4 -8 -10 -11 -5
-3 -10 -1 -10 4 0 6 5 11 10 11 6 0 10 -2 10 -4z m901 -41 c10 -4 19 -11 19
-17 0 -15 -45 17 -46 33 -1 9 1 9 3 2 2 -7 13 -15 24 -18z m-31 -25 c0 -5 -8
-10 -17 -10 -15 0 -16 2 -3 10 19 12 20 12 20 0z m95 -10 c3 -5 -1 -10 -10
-10 -9 0 -13 5 -10 10 3 6 8 10 10 10 2 0 7 -4 10 -10z m-78 -36 c-3 -3 -12
-4 -19 -1 -8 3 -5 6 6 6 11 1 17 -2 13 -5z m87 -2 c2 -4 -5 -9 -17 -9 -17 -2
-19 0 -7 7 18 12 18 12 24 2z m-135 -15 c8 -10 7 -14 -4 -14 -8 0 -15 6 -15
14 0 7 2 13 4 13 2 0 9 -6 15 -13z m78 -23 c-3 -3 -12 -4 -19 -1 -8 3 -5 6 6
6 11 1 17 -2 13 -5z m64 -17 c-10 -9 -11 -8 -5 6 3 10 9 15 12 12 3 -3 0 -11
-7 -18z m49 -13 c0 -8 -5 -12 -10 -9 -6 4 -8 11 -5 16 9 14 15 11 15 -7z m-95
-42 c-3 -3 -11 0 -18 7 -9 10 -8 11 6 5 10 -3 15 -9 12 -12z m115 -1 c0 -5 -7
-11 -15 -15 -8 -3 -12 -12 -9 -21 3 -8 1 -15 -5 -15 -15 0 -14 33 1 48 14 14
28 16 28 3z m34 -51 c-6 -6 -15 -5 -24 1 -13 9 -12 10 3 5 9 -3 17 0 17 6 0 6
3 8 7 5 4 -4 2 -12 -3 -17z m-207 -6 c-3 -3 -12 -4 -19 -1 -8 3 -5 6 6 6 11 1
17 -2 13 -5z m50 -9 c0 -8 -4 -12 -9 -9 -5 3 -6 10 -3 15 9 13 12 11 12 -6z
m188 -15 c-3 -5 -10 -10 -16 -10 -5 0 -9 5 -9 10 0 6 7 10 16 10 8 0 12 -4 9
-10z m-218 -6 c-3 -3 -12 -4 -19 -1 -8 3 -5 6 6 6 11 1 17 -2 13 -5z m183 -4
c0 -5 -2 -10 -4 -10 -3 0 -8 5 -11 10 -3 6 -1 10 4 10 6 0 11 -4 11 -10z m57
-46 c-3 -3 -12 -4 -19 -1 -8 3 -5 6 6 6 11 1 17 -2 13 -5z m-1487 -68 c0 -2
-7 -7 -16 -10 -8 -3 -12 -2 -9 4 6 10 25 14 25 6z m-52 -106 c-7 -10 -14 -18
-15 -16 -6 6 9 36 18 36 5 0 4 -9 -3 -20z m-27 -67 c-12 -20 -14 -14 -5 12 4
9 9 14 11 11 3 -2 0 -13 -6 -23z m1669 -8 c0 -8 -2 -15 -4 -15 -2 0 -6 7 -10
15 -3 8 -1 15 4 15 6 0 10 -7 10 -15z m35 -15 c3 -5 -1 -10 -9 -10 -9 0 -16 5
-16 10 0 6 4 10 9 10 6 0 13 -4 16 -10z m160 -130 c3 -5 2 -10 -4 -10 -6 0 -8
-8 -4 -17 5 -15 3 -14 -10 2 -9 11 -17 23 -17 28 0 11 28 9 35 -3z m5 -69 c0
-5 -9 -11 -19 -14 -14 -3 -18 -1 -14 9 6 15 33 19 33 5z m30 -41 c5 0 7 -12 5
-27 -2 -16 -4 -31 -4 -35 -1 -11 -31 -10 -31 1 0 5 8 12 18 14 10 3 5 5 -12 6
-28 1 -29 2 -12 20 10 11 15 24 12 29 -3 6 -3 18 1 29 7 15 9 13 11 -9 2 -16
7 -28 12 -28z"/>
<path d="M4080 3089 c0 -5 5 -7 10 -4 6 3 10 8 10 11 0 2 -4 4 -10 4 -5 0 -10
-5 -10 -11z"/>
<path d="M3742 3986 c7 -8 15 -12 17 -11 5 6 -10 25 -20 25 -5 0 -4 -6 3 -14z"/>
<path d="M3770 3771 c0 -6 4 -13 10 -16 6 -3 7 1 4 9 -7 18 -14 21 -14 7z"/>
<path d="M3760 3714 c0 -3 7 -12 15 -20 13 -13 15 -13 15 -1 0 8 -7 17 -15 21
-8 3 -15 3 -15 0z"/>
<path d="M2 2195 c0 -16 2 -22 5 -12 2 9 2 23 0 30 -3 6 -5 -1 -5 -18z"/>
<path d="M3335 1940 c3 -5 8 -10 11 -10 2 0 4 5 4 10 0 6 -5 10 -11 10 -5 0
-7 -4 -4 -10z"/>
<path d="M3133 1683 c-21 -8 -15 -22 7 -16 11 3 20 9 20 14 0 10 -8 10 -27 2z"/>
<path d="M3115 1630 c-3 -5 -2 -10 4 -10 5 0 13 5 16 10 3 6 2 10 -4 10 -5 0
-13 -4 -16 -10z"/>
<path d="M3068 1593 c7 -3 16 -2 19 1 4 3 -2 6 -13 5 -11 0 -14 -3 -6 -6z"/>
<path d="M3051 1564 c0 -11 3 -14 6 -6 3 7 2 16 -1 19 -3 4 -6 -2 -5 -13z"/>
<path d="M3019 1539 c-8 -15 -8 -19 0 -15 6 4 11 3 11 -3 0 -6 7 -8 15 -5 8 4
15 11 15 16 0 6 -7 8 -14 5 -10 -4 -13 -1 -9 9 8 22 -5 17 -18 -7z"/>
<path d="M3803 1505 c-3 -9 -3 -18 -1 -21 3 -3 8 4 11 16 6 23 -1 27 -10 5z"/>
<path d="M2939 1432 c-72 -100 -103 -152 -95 -159 3 -3 9 3 13 13 3 10 9 21
12 24 3 3 19 24 35 47 16 24 33 40 39 36 5 -3 7 -1 4 5 -4 5 -4 18 -1 27 6 13
9 14 16 3 7 -10 8 -9 4 4 -6 19 31 61 46 52 4 -3 8 -1 8 4 0 6 -6 12 -13 15
-9 3 -35 -24 -68 -71z"/>
<path d="M3779 1452 c-7 -10 -15 -26 -17 -37 -2 -14 4 -10 19 13 23 35 22 53
-2 24z"/>
<path d="M2985 1450 c-3 -5 -1 -10 4 -10 6 0 11 5 11 10 0 6 -2 10 -4 10 -3 0
-8 -4 -11 -10z"/>
<path d="M3740 1386 c0 -9 5 -16 10 -16 6 0 10 4 10 9 0 6 -4 13 -10 16 -5 3
-10 -1 -10 -9z"/>
<path d="M580 1320 c0 -5 9 -10 21 -10 11 0 17 5 14 10 -3 6 -13 10 -21 10 -8
0 -14 -4 -14 -10z"/>
<path d="M490 1299 c0 -5 5 -7 10 -4 6 3 10 8 10 11 0 2 -4 4 -10 4 -5 0 -10
-5 -10 -11z"/>
<path d="M520 1290 c0 -5 5 -10 11 -10 5 0 7 5 4 10 -3 6 -8 10 -11 10 -2 0
-4 -4 -4 -10z"/>
<path d="M648 1283 c7 -3 16 -2 19 1 4 3 -2 6 -13 5 -11 0 -14 -3 -6 -6z"/>
<path d="M3678 1283 c7 -3 16 -2 19 1 4 3 -2 6 -13 5 -11 0 -14 -3 -6 -6z"/>
<path d="M496 1252 c-2 -4 -1 -14 3 -21 6 -10 10 -9 14 3 6 16 -8 32 -17 18z"/>
<path d="M2811 1233 c-23 -29 -21 -43 4 -23 9 7 13 15 10 18 -3 3 0 11 6 19 6
7 9 13 6 13 -3 0 -15 -12 -26 -27z"/>
<path d="M550 1221 c0 -5 5 -13 10 -16 6 -3 10 -17 10 -29 0 -16 7 -26 22 -29
26 -7 23 -9 32 26 4 16 2 27 -4 27 -5 0 -10 -9 -10 -20 0 -27 -17 -25 -26 2
-7 25 -34 55 -34 39z"/>
<path d="M3650 1220 c0 -5 4 -10 9 -10 6 0 13 5 16 10 3 6 -1 10 -9 10 -9 0
-16 -4 -16 -10z"/>
<path d="M490 1200 c0 -5 7 -10 16 -10 8 0 12 5 9 10 -3 6 -10 10 -16 10 -5 0
-9 -4 -9 -10z"/>
<path d="M3630 1190 c0 -5 5 -10 11 -10 5 0 7 5 4 10 -3 6 -8 10 -11 10 -2 0
-4 -4 -4 -10z"/>
<path d="M515 1171 c-2 -5 4 -11 15 -14 11 -3 20 -2 20 3 0 12 -28 21 -35 11z"/>
<path d="M640 1167 c0 -17 37 -39 45 -27 3 6 -1 10 -9 10 -9 0 -16 7 -16 15 0
8 -4 15 -10 15 -5 0 -10 -6 -10 -13z"/>
<path d="M495 1140 c-4 -6 0 -10 8 -10 8 0 20 -7 27 -15 9 -10 9 -15 1 -15 -6
0 -11 5 -11 10 0 6 -4 10 -10 10 -21 0 4 -29 28 -33 l27 -4 -27 -2 c-34 -1
-39 -31 -5 -30 21 0 21 1 2 9 -19 8 -19 9 2 9 12 1 23 -5 26 -11 2 -7 4 -1 4
15 0 15 -3 27 -8 27 -5 0 -9 6 -9 13 0 18 -47 40 -55 27z"/>
<path d="M641 1114 c0 -11 3 -14 6 -6 3 7 2 16 -1 19 -3 4 -6 -2 -5 -13z"/>
<path d="M603 1080 c0 -25 2 -35 4 -22 2 12 2 32 0 45 -2 12 -4 2 -4 -23z"/>
<path d="M622 1075 c0 -16 2 -22 5 -12 2 9 2 23 0 30 -3 6 -5 -1 -5 -18z"/>
<path d="M640 1080 c0 -5 7 -7 15 -4 8 4 15 8 15 10 0 2 -7 4 -15 4 -8 0 -15
-4 -15 -10z"/>
<path d="M680 1080 c0 -5 7 -7 15 -4 8 4 15 8 15 10 0 2 -7 4 -15 4 -8 0 -15
-4 -15 -10z"/>
<path d="M581 1062 c-1 -7 -13 -23 -27 -35 -17 -15 -23 -28 -19 -39 4 -10 11
-15 16 -12 5 3 9 0 9 -7 0 -7 3 -9 6 -6 4 4 1 14 -7 24 -12 14 -12 16 0 8 11
-6 13 -4 8 10 -5 11 -1 22 9 30 9 6 14 18 11 26 -4 10 -6 11 -6 1z"/>
<path d="M654 1051 c4 -5 1 -11 -6 -13 -7 -3 -8 -7 -2 -11 5 -3 15 3 22 14 10
16 9 19 -4 19 -8 0 -13 -4 -10 -9z"/>
<path d="M784 1049 c-3 -5 6 -9 20 -9 31 0 34 6 6 13 -11 3 -23 1 -26 -4z"/>
<path d="M596 1023 c-9 -9 -7 -33 3 -33 12 0 22 28 12 34 -5 3 -11 3 -15 -1z"/>
<path d="M675 1020 c-3 -5 1 -10 9 -10 9 0 16 5 16 10 0 6 -4 10 -9 10 -6 0
-13 -4 -16 -10z"/>
<path d="M631 978 c-1 -10 6 -18 14 -18 8 0 15 5 15 11 0 5 -4 8 -9 5 -5 -4
-12 0 -14 6 -3 8 -6 6 -6 -4z"/>
<path d="M680 980 c0 -5 5 -10 11 -10 5 0 7 5 4 10 -3 6 -8 10 -11 10 -2 0 -4
-4 -4 -10z"/>
<path d="M585 960 c-4 -6 -15 -8 -26 -5 -17 6 -19 3 -13 -22 4 -15 9 -31 11
-35 7 -13 30 -9 43 7 9 10 9 15 1 15 -6 0 -11 9 -11 20 0 13 5 18 15 14 8 -3
13 -9 12 -12 -3 -9 14 -11 32 -4 7 3 22 0 33 -7 11 -7 22 -10 25 -8 9 9 -39
29 -58 24 -10 -3 -23 1 -30 9 -14 17 -25 18 -34 4z"/>
<path d="M741 914 c0 -11 3 -14 6 -6 3 7 2 16 -1 19 -3 4 -6 -2 -5 -13z"/>
<path d="M632 913 c-6 -2 -10 -9 -7 -13 7 -11 35 -2 35 11 0 10 -8 10 -28 2z"/>
<path d="M580 856 c0 -14 8 -31 19 -38 10 -7 19 -17 19 -23 1 -15 30 -31 39
-21 4 5 3 11 -4 13 -8 3 -7 11 3 31 8 15 14 32 14 37 -1 6 -8 -2 -16 -17 -8
-16 -18 -28 -23 -28 -14 0 -32 27 -34 49 -2 29 -17 26 -17 -3z"/>
<path d="M613 860 c-1 -11 2 -22 8 -25 5 -4 9 5 9 19 0 30 -15 35 -17 6z"/>
<path d="M673 806 c0 -14 4 -26 10 -26 6 0 19 -7 29 -17 11 -10 18 -12 18 -4
0 6 -11 17 -25 23 -19 9 -22 14 -13 25 6 7 8 16 4 20 -3 3 -6 0 -6 -8 0 -12
-2 -12 -9 0 -6 9 -8 5 -8 -13z"/>
<path d="M773 813 c9 -2 23 -2 30 0 6 3 -1 5 -18 5 -16 0 -22 -2 -12 -5z"/>
<path d="M735 790 c3 -5 8 -10 11 -10 2 0 4 5 4 10 0 6 -5 10 -11 10 -5 0 -7
-4 -4 -10z"/>
<path d="M661 761 c-7 -5 -9 -11 -5 -14 5 -3 15 1 22 9 14 16 5 18 -17 5z"/>
<path d="M766 735 c4 -8 10 -15 15 -15 4 0 6 7 3 15 -4 8 -10 15 -15 15 -4 0
-6 -7 -3 -15z"/>
<path d="M705 710 c3 -5 8 -10 11 -10 2 0 4 5 4 10 0 6 -5 10 -11 10 -5 0 -7
-4 -4 -10z"/>
<path d="M2636 540 c-12 -182 18 -313 104 -464 l44 -76 53 0 c29 0 53 2 53 4
0 3 -17 31 -39 63 -98 148 -168 332 -185 488 -11 97 -23 91 -30 -15z"/>
<path d="M845 480 c-3 -5 -1 -10 4 -10 6 0 11 5 11 10 0 6 -2 10 -4 10 -3 0
-8 -4 -11 -10z"/>
<path d="M815 439 c-10 -15 3 -25 16 -12 7 7 7 13 1 17 -6 3 -14 1 -17 -5z"/>
<path d="M843 402 c-7 -22 -8 -38 -2 -40 5 -2 9 -19 9 -38 0 -19 5 -34 10 -34
6 0 10 -6 8 -12 -4 -19 23 -108 33 -108 5 0 6 6 4 13 -2 6 -7 36 -9 65 -8 73
-27 143 -37 136 -5 -3 -9 -1 -9 5 0 5 5 11 12 13 7 3 8 10 2 21 -8 13 -11 9
-21 -21z"/>
<path d="M632 280 c0 -14 2 -19 5 -12 2 6 2 18 0 25 -3 6 -5 1 -5 -13z"/>
<path d="M906 147 c3 -10 9 -15 12 -12 3 3 0 11 -7 18 -10 9 -11 8 -5 -6z"/>
</g>
</svg>
